<?xml version="1.0" encoding="UTF-8"?><svg id="Layer_1" xmlns="http://www.w3.org/2000/svg" viewBox="0 0 200 200"><defs><style>.cls-1{fill:#e9b1bb;}.cls-2{fill:#e5f2f6;}.cls-3{fill:#63bcc2;}.cls-4{fill:#fff;}.cls-5{fill:#d8504e;}.cls-6{fill:#5a3a1b;}.cls-7{fill:#eec546;}.cls-8{fill:#eec446;}</style></defs><path class="cls-3" d="M126.38,143.38c10.52,3.07,12.32,22.44,21.87,12.83,4.13-4.15,3.22-6.21-1.68-10.99-3.2-3.11-9.16-7.59-13.55-7.86"/><path class="cls-6" d="M143.41,160.51c-.16,0-.32,0-.48-.02-3.37-.3-5.66-3.59-8.09-7.08-2.39-3.43-5.09-7.33-8.93-8.44-.88-.26-1.38-1.17-1.13-2.05.26-.88,1.17-1.38,2.05-1.13,4.96,1.45,8.02,5.85,10.72,9.73,1.97,2.83,3.83,5.51,5.66,5.67,1.04.09,2.34-.63,3.86-2.15,1.46-1.47,2.14-2.55,2.13-3.41-.01-1.27-1.53-3.01-3.8-5.22-3.61-3.52-9.07-7.18-12.49-7.39-.91-.05-1.61-.84-1.55-1.75.05-.91.83-1.61,1.75-1.55,6.27.37,13.77,7.51,14.6,8.32,3.1,3.02,4.78,5.12,4.8,7.57.01,1.85-.91,3.58-3.1,5.77-2.1,2.11-4.07,3.14-6.01,3.14Z"/><path class="cls-3" d="M73.62,143.38c-10.52,3.07-12.32,22.44-21.87,12.83-4.13-4.15-3.22-6.21,1.68-10.99,3.2-3.11,9.16-7.59,13.55-7.86"/><path class="cls-6" d="M56.58,160.51c-1.94,0-3.91-1.03-6.01-3.14-2.19-2.2-3.11-3.92-3.1-5.77.02-2.45,1.7-4.55,4.8-7.57.83-.81,8.34-7.95,14.6-8.32.92-.05,1.7.64,1.75,1.55.05.91-.64,1.7-1.55,1.75-3.43.2-8.88,3.87-12.49,7.39-2.27,2.21-3.79,3.95-3.8,5.22,0,.86.67,1.94,2.13,3.41,1.51,1.52,2.81,2.25,3.86,2.16,1.83-.16,3.69-2.84,5.66-5.67,2.7-3.88,5.76-8.29,10.72-9.73.88-.26,1.8.25,2.05,1.13.26.88-.25,1.8-1.13,2.05-3.84,1.12-6.54,5.01-8.93,8.44-2.43,3.49-4.72,6.78-8.09,7.08-.16.01-.32.02-.48.02Z"/><path class="cls-3" d="M69.97,164.59c-1.39,5.59-2.03,17.35,1.26,21.79,2.98,4.02,8.94,4.58,12.96,4.21,8.35-.77,3.85-9.92,3.85-16.89"/><path class="cls-6" d="M82.19,192.33c-3.43,0-9.13-.71-12.29-4.97-2.12-2.86-2.64-7.79-2.71-11.42-.08-4.04.37-8.55,1.17-11.76.22-.89,1.12-1.43,2-1.21.89.22,1.43,1.12,1.21,2-1.41,5.69-1.74,16.72.98,20.41,2.96,4,9.53,3.73,11.48,3.54,1.4-.13,2.33-.52,2.85-1.19,1.17-1.5.65-4.8.14-7.99-.32-2.01-.65-4.09-.65-6.06,0-.91.74-1.65,1.65-1.65h0c.91,0,1.65.74,1.65,1.65,0,1.72.31,3.66.61,5.54.64,4.06,1.25,7.9-.8,10.54-1.1,1.41-2.83,2.24-5.16,2.46-.5.05-1.25.1-2.15.1Z"/><path class="cls-3" d="M130.03,164.59c1.39,5.59,2.03,17.35-1.26,21.79-2.98,4.02-8.94,4.58-12.96,4.21-8.35-.77-3.85-9.92-3.85-16.89"/><path class="cls-6" d="M117.81,192.33c-.91,0-1.65-.05-2.15-.1-2.32-.22-4.06-1.04-5.16-2.46-2.05-2.63-1.44-6.47-.8-10.53.3-1.88.61-3.83.61-5.54,0-.91.74-1.65,1.65-1.65h0c.91,0,1.65.74,1.65,1.65,0,1.98-.33,4.05-.65,6.06-.5,3.19-1.03,6.49.14,7.99.52.67,1.46,1.06,2.85,1.19,1.94.18,8.52.45,11.48-3.54,2.73-3.68,2.4-14.72.98-20.41-.22-.89.32-1.78,1.21-2,.89-.22,1.78.32,2,1.21.8,3.21,1.25,7.71,1.17,11.75-.07,3.63-.59,8.56-2.71,11.42-3.15,4.26-8.86,4.97-12.29,4.97Z"/><path class="cls-3" d="M135.26,152.54c0,16.86-15.79,23.07-35.26,23.07s-35.26-6.21-35.26-23.07,15.79-42.59,35.26-42.59,35.26,25.73,35.26,42.59Z"/><path class="cls-6" d="M100,177.26c-10.81,0-19.47-1.83-25.76-5.43-7.4-4.25-11.16-10.74-11.16-19.29s4.08-19.81,10.66-28.61c7.53-10.08,16.86-15.64,26.26-15.64s18.72,5.55,26.26,15.64c6.57,8.8,10.66,19.76,10.66,28.61s-3.75,15.05-11.16,19.29c-6.28,3.6-14.95,5.43-25.75,5.43ZM100,111.6c-4.82,0-14.3,1.86-23.61,14.31-6.17,8.25-10,18.46-10,26.63,0,18.63,21.05,21.42,33.6,21.42s33.6-2.78,33.6-21.42c0-8.17-3.83-18.37-10-26.63-9.3-12.45-18.78-14.31-23.61-14.31Z"/><path class="cls-6" d="M100,144.98c-.52,0-.95-.42-.95-.95v-2.13c0-.52.42-.95.95-.95s.95.42.95.95v2.13c0,.52-.42.95-.95.95Z"/><path class="cls-6" d="M100,169.01c-.52,0-.95-.42-.95-.95v-4c0-.52.42-.95.95-.95s.95.42.95.95v4c0,.52-.42.95-.95.95ZM100,161c-.52,0-.95-.42-.95-.95v-4c0-.52.42-.95.95-.95s.95.42.95.95v4c0,.52-.42.95-.95.95ZM100,152.99c-.52,0-.95-.42-.95-.95v-4c0-.52.42-.95.95-.95s.95.42.95.95v4c0,.52-.42.95-.95.95Z"/><path class="cls-6" d="M100,175.14c-.52,0-.95-.42-.95-.95v-2.13c0-.52.42-.95.95-.95s.95.42.95.95v2.13c0,.52-.42.95-.95.95Z"/><path class="cls-5" d="M118.2,160.03c9.53-4.1,11.11-13.28,6.52-14.6-4.59-1.33-6.52,2.29-6.52,2.29h0s-1.93-3.62-6.52-2.29c-4.59,1.33-3.04,10.5,6.5,14.6h.01Z"/><path class="cls-6" d="M118.2,160.98h-.01c-.13,0-.26-.03-.37-.08-6.89-2.96-9.77-8.35-9.54-12.1.13-2.15,1.31-3.75,3.15-4.28,3.25-.94,5.54.33,6.79,1.64.95-1,3.18-2.68,6.77-1.64,1.83.53,3.01,2.13,3.14,4.27.23,3.75-2.66,9.14-9.56,12.11-.12.05-.25.08-.37.08ZM118.2,160.03h0,0ZM113.62,146.09c-.5,0-1.05.07-1.66.25-1.44.42-1.74,1.8-1.79,2.58-.2,3.14,2.5,7.56,8.03,10.08,5.54-2.52,8.25-6.95,8.05-10.09-.05-.78-.35-2.15-1.78-2.57-3.76-1.09-5.36,1.72-5.42,1.84l-.83-.45h0s-.83.45-.83.45c-.06-.1-1.18-2.08-3.76-2.08Z"/><rect class="cls-6" x="117.3" y="147.25" width="1.77" height="1.3" rx=".65" ry=".65"/><path class="cls-7" d="M121.7,152.89c0,1.8-1.46,3.25-3.25,3.25s-3.25-1.46-3.25-3.25,1.46-3.25,3.25-3.25,3.25,1.46,3.25,3.25Z"/><path class="cls-6" d="M118.45,156.85c-2.18,0-3.96-1.78-3.96-3.96s1.78-3.96,3.96-3.96,3.96,1.78,3.96,3.96-1.78,3.96-3.96,3.96ZM118.45,150.35c-1.4,0-2.54,1.14-2.54,2.54s1.14,2.54,2.54,2.54,2.54-1.14,2.54-2.54-1.14-2.54-2.54-2.54Z"/><path class="cls-6" d="M138.04,162.69c-.41,0-.79-.27-.91-.68-1.26-4.35-3.46-7.29-6.55-8.74-5.33-2.49-11.66.24-11.72.27-.48.21-1.04,0-1.25-.48-.21-.48,0-1.03.48-1.25.29-.13,7.15-3.11,13.27-.26,3.61,1.68,6.16,5.03,7.58,9.93.14.5-.14,1.03-.65,1.17-.09.02-.18.04-.26.04Z"/><path class="cls-6" d="M141.08,166.87c.16.54-.3,1.16-1.05,1.38h0c-.74.23-1.48-.03-1.64-.57l-1.46-4.78c-.16-.54.3-1.16,1.05-1.38h0c.74-.23,1.48.03,1.64.57l1.46,4.79Z"/><path class="cls-8" d="M174.82,79.41c0,53.85-34.54,61.15-74.82,61.15s-74.82-7.3-74.82-61.15C25.18,40.7,59.72,9.33,100,9.33s74.82,31.38,74.82,70.08Z"/><path class="cls-6" d="M100,142.21c-18,0-38.42-1.26-53.39-10.63-15.53-9.72-23.08-26.79-23.08-52.17,0-19.08,8.11-37.11,22.84-50.77,14.57-13.52,33.62-20.97,53.64-20.97s39.06,7.45,53.64,20.97c14.73,13.66,22.84,31.69,22.84,50.77,0,25.38-7.55,42.45-23.08,52.17-14.97,9.37-35.39,10.63-53.39,10.63ZM100,10.98c-19.18,0-37.43,7.13-51.39,20.08-14.04,13.03-21.78,30.2-21.78,48.34,0,24.15,7.04,40.3,21.53,49.36,14.26,8.93,34.11,10.13,51.64,10.13s37.38-1.2,51.64-10.13c14.49-9.07,21.53-25.21,21.53-49.36,0-18.15-7.73-35.31-21.78-48.34-13.96-12.95-32.21-20.08-51.39-20.08Z"/><path class="cls-6" d="M100.12,135.85h-.13s0,0-.01,0c-1.35,0-2.68-.01-3.99-.03-.53,0-.95-.44-.94-.97,0-.53.45-.97.97-.94,1.3.02,2.63.03,3.98.03h.11c.53,0,.96.43.96.96s-.43.96-.96.96ZM104.95,135.8c-.52,0-.95-.42-.96-.94-.01-.53.41-.96.94-.97,1.34-.03,2.68-.06,3.97-.11.52-.02.97.39.99.92.02.53-.39.97-.92.99-1.31.05-2.66.09-4.01.11h-.02ZM91.17,135.69s-.02,0-.04,0c-1.37-.05-2.72-.12-4.01-.19-.53-.03-.93-.48-.9-1.01.03-.53.48-.92,1.01-.9,1.28.08,2.62.14,3.97.19.53.02.94.46.92.99-.02.52-.44.92-.95.92ZM113.78,135.44c-.5,0-.92-.39-.95-.89-.03-.53.37-.98.89-1.02,1.34-.09,2.67-.19,3.96-.31.53-.05.99.34,1.04.87s-.34.99-.87,1.04c-1.3.12-2.65.22-4.01.31-.02,0-.04,0-.06,0ZM82.35,135.14s-.06,0-.09,0c-1.37-.12-2.72-.26-4-.42-.52-.06-.9-.54-.83-1.06.06-.52.54-.9,1.06-.83,1.26.15,2.59.29,3.94.41.53.05.91.51.87,1.04-.04.5-.46.87-.95.87ZM122.58,134.61c-.47,0-.89-.35-.95-.83-.07-.52.3-1,.83-1.07,1.34-.17,2.66-.37,3.92-.57.52-.09,1.01.27,1.1.79s-.27,1.01-.79,1.1c-1.28.21-2.62.41-3.99.58-.04,0-.08,0-.12,0ZM73.59,134.05c-.05,0-.1,0-.16-.01-1.35-.22-2.69-.47-3.97-.74-.52-.11-.85-.61-.74-1.13.11-.52.61-.85,1.13-.74,1.25.26,2.56.51,3.89.72.52.09.87.58.79,1.1-.08.47-.48.8-.94.8ZM131.28,133.12c-.44,0-.83-.3-.93-.75-.11-.52.21-1.03.73-1.14,1.31-.29,2.6-.61,3.83-.95.51-.14,1.04.16,1.18.67.14.51-.16,1.04-.67,1.18-1.26.35-2.58.68-3.93.97-.07.02-.14.02-.21.02ZM64.96,132.19c-.08,0-.17-.01-.25-.03-1.33-.36-2.63-.76-3.87-1.19-.5-.17-.77-.71-.6-1.21.17-.5.71-.77,1.21-.6,1.21.41,2.47.8,3.76,1.16.51.14.81.67.67,1.18-.12.42-.5.7-.92.7ZM139.77,130.7c-.39,0-.76-.24-.9-.63-.18-.5.08-1.04.58-1.22,1.25-.45,2.48-.94,3.64-1.45.48-.21,1.05,0,1.26.49.21.48,0,1.05-.49,1.26-1.21.53-2.48,1.04-3.77,1.5-.11.04-.22.06-.32.06ZM56.63,129.26c-.13,0-.26-.03-.38-.08-1.25-.55-2.49-1.15-3.66-1.78-.47-.25-.64-.83-.39-1.29.25-.46.83-.64,1.3-.39,1.13.61,2.31,1.18,3.52,1.71.48.21.7.78.49,1.26-.16.36-.51.57-.88.57ZM147.81,127.05c-.33,0-.66-.17-.83-.49-.26-.46-.1-1.04.36-1.3,1.15-.65,2.26-1.34,3.31-2.07.43-.3,1.03-.2,1.33.24.3.43.19,1.03-.24,1.33-1.1.76-2.26,1.49-3.46,2.17-.15.08-.31.12-.47.12ZM48.91,124.99c-.19,0-.38-.06-.54-.17-1.13-.78-2.22-1.62-3.24-2.49-.4-.34-.45-.95-.11-1.35.34-.4.95-.45,1.35-.11.97.83,2.01,1.63,3.09,2.37.43.3.54.9.24,1.33-.19.27-.48.41-.79.41ZM154.98,121.93c-.26,0-.52-.11-.71-.32-.35-.39-.32-1,.07-1.35.97-.87,1.89-1.79,2.75-2.75.35-.39.96-.42,1.35-.07.39.35.42.96.07,1.35-.91,1.01-1.88,1.98-2.9,2.89-.18.16-.41.24-.64.24ZM42.27,119.19c-.26,0-.52-.11-.71-.31-.91-1.01-1.78-2.08-2.58-3.18-.31-.43-.22-1.03.21-1.34.43-.31,1.03-.22,1.34.21.76,1.05,1.58,2.06,2.45,3.02.35.39.32,1-.07,1.35-.18.17-.41.25-.64.25ZM160.8,115.31c-.19,0-.38-.05-.54-.17-.44-.3-.55-.89-.25-1.33.73-1.06,1.41-2.18,2.03-3.32.25-.46.83-.64,1.3-.38.46.25.64.83.38,1.3-.65,1.2-1.37,2.38-2.14,3.49-.19.27-.48.42-.79.42ZM37.17,112.01c-.34,0-.67-.18-.84-.5-.64-1.18-1.24-2.41-1.78-3.68-.21-.49.02-1.05.51-1.25.49-.21,1.05.02,1.25.51.51,1.21,1.08,2.39,1.7,3.51.25.46.08,1.04-.38,1.3-.15.08-.3.12-.46.12ZM164.93,107.53c-.12,0-.24-.02-.35-.07-.49-.2-.73-.75-.53-1.24.47-1.19.9-2.43,1.28-3.69.15-.51.68-.8,1.19-.64.51.15.79.68.64,1.19-.39,1.32-.84,2.61-1.34,3.85-.15.37-.51.6-.89.6ZM33.79,103.87c-.41,0-.79-.27-.92-.68-.38-1.27-.72-2.6-1.01-3.94-.11-.52.22-1.02.73-1.14.52-.11,1.02.22,1.14.73.28,1.29.6,2.57.97,3.79.15.51-.13,1.04-.64,1.19-.09.03-.18.04-.28.04ZM167.39,99.06c-.06,0-.12,0-.18-.02-.52-.1-.86-.6-.75-1.12.25-1.25.45-2.56.62-3.88.06-.52.54-.89,1.07-.83.52.07.9.54.83,1.07-.17,1.36-.38,2.71-.64,4.01-.09.46-.49.77-.94.77ZM32,95.23c-.48,0-.89-.35-.95-.84-.16-1.31-.29-2.67-.38-4.04-.03-.53.37-.98.89-1.01.53-.04.98.37,1.01.89.08,1.33.21,2.65.37,3.92.07.52-.31,1-.83,1.07-.04,0-.08,0-.12,0ZM168.43,90.29s-.03,0-.05,0c-.53-.03-.93-.47-.91-1,.06-1.15.08-2.35.08-3.55v-.39c0-.53.42-.96.94-.97h.01c.52,0,.95.42.96.95v.41c0,1.23-.03,2.46-.08,3.64-.02.51-.45.91-.95.91ZM31.49,86.41h0c-.53,0-.95-.44-.95-.96.01-1.36.1-2.74.26-4.09.06-.52.53-.9,1.06-.84.52.06.9.54.84,1.06-.15,1.28-.23,2.59-.24,3.88,0,.53-.43.95-.96.95ZM168.14,81.47c-.47,0-.88-.34-.95-.82-.18-1.28-.44-2.56-.76-3.81-.13-.51.18-1.03.69-1.16.51-.13,1.03.18,1.16.69.34,1.32.61,2.67.81,4.02.08.52-.29,1.01-.81,1.08-.05,0-.09.01-.14.01ZM32.62,77.67c-.08,0-.16,0-.24-.03-.51-.13-.82-.65-.69-1.16.33-1.31.74-2.62,1.22-3.91.18-.49.73-.75,1.23-.56.5.18.75.73.56,1.23-.45,1.22-.84,2.47-1.16,3.71-.11.43-.5.72-.93.72ZM165.85,72.96c-.38,0-.74-.23-.89-.6-.48-1.19-1.02-2.38-1.63-3.54-.24-.47-.06-1.05.41-1.29.47-.24,1.05-.06,1.29.41.63,1.22,1.21,2.47,1.71,3.72.2.49-.04,1.05-.53,1.24-.12.05-.24.07-.35.07ZM35.76,69.44c-.15,0-.3-.03-.44-.11-.47-.24-.65-.82-.41-1.29.62-1.19,1.31-2.38,2.05-3.53.29-.44.88-.57,1.32-.29.44.29.57.88.29,1.32-.71,1.1-1.37,2.24-1.96,3.38-.17.33-.5.52-.85.52ZM161.7,65.18c-.31,0-.61-.15-.79-.42-.72-1.06-1.5-2.12-2.33-3.14-.33-.41-.27-1.01.14-1.34.41-.33,1.01-.27,1.34.14.86,1.07,1.68,2.17,2.43,3.27.3.44.18,1.03-.26,1.33-.16.11-.35.16-.53.16ZM40.6,62.07c-.21,0-.42-.07-.6-.21-.41-.33-.48-.93-.14-1.34.84-1.04,1.74-2.07,2.68-3.06.36-.38.97-.4,1.35-.04s.4.97.04,1.35c-.91.96-1.78,1.95-2.58,2.95-.19.23-.47.36-.75.36ZM156.09,58.37c-.25,0-.49-.1-.68-.29-.9-.92-1.86-1.82-2.85-2.69-.4-.35-.44-.95-.09-1.35.35-.4.95-.44,1.35-.09,1.03.9,2.02,1.84,2.96,2.79.37.38.37.98-.01,1.35-.19.18-.43.27-.67.27ZM46.72,55.7c-.26,0-.53-.11-.72-.32-.35-.4-.31-1,.08-1.35,1-.88,2.05-1.75,3.13-2.58.42-.32,1.02-.24,1.34.18.32.42.24,1.02-.18,1.34-1.05.8-2.07,1.64-3.03,2.5-.18.16-.41.24-.63.24ZM149.42,52.58c-.2,0-.4-.06-.57-.19-.5-.37-1.01-.74-1.54-1.11-.56-.39-1.13-.77-1.69-1.14-.44-.29-.57-.88-.28-1.32.29-.44.88-.57,1.32-.28.58.38,1.17.78,1.74,1.18.54.38,1.06.76,1.58,1.14.42.31.51.91.2,1.34-.19.25-.48.39-.77.39ZM53.75,50.37c-.31,0-.62-.15-.8-.43-.29-.44-.17-1.03.28-1.32,1.11-.73,2.27-1.44,3.45-2.12.46-.26,1.04-.11,1.31.35.26.46.11,1.04-.35,1.31-1.14.66-2.27,1.35-3.35,2.06-.16.11-.34.16-.52.16ZM142,47.8c-.16,0-.32-.04-.46-.12-1.13-.63-2.31-1.24-3.5-1.82-.48-.23-.67-.8-.44-1.28.23-.48.8-.67,1.28-.44,1.22.59,2.43,1.22,3.59,1.87.46.26.63.84.37,1.3-.17.31-.5.49-.84.49ZM61.42,46.01c-.35,0-.69-.2-.86-.54-.23-.47-.03-1.05.44-1.28,1.2-.58,2.43-1.15,3.68-1.68.49-.21,1.05.02,1.25.51s-.02,1.05-.51,1.25c-1.21.52-2.42,1.06-3.59,1.63-.14.07-.28.1-.42.1ZM134.03,43.98c-.12,0-.24-.02-.36-.07-1.21-.49-2.45-.97-3.69-1.4-.5-.18-.76-.72-.58-1.22.18-.5.72-.76,1.22-.58,1.27.45,2.55.93,3.78,1.44.49.2.72.76.52,1.25-.15.37-.51.59-.89.59ZM69.56,42.61c-.39,0-.76-.24-.9-.64-.18-.5.08-1.04.58-1.22,1.25-.44,2.55-.87,3.84-1.26.51-.15,1.04.13,1.19.64.15.51-.13,1.04-.64,1.19-1.26.38-2.52.79-3.75,1.23-.11.04-.21.06-.32.06ZM125.68,41.08c-.09,0-.18-.01-.27-.04-1.25-.36-2.54-.7-3.82-1.01-.51-.12-.83-.64-.71-1.15.12-.51.64-.83,1.15-.71,1.31.31,2.63.66,3.91,1.03.51.15.8.68.65,1.18-.12.42-.5.69-.92.69ZM78.03,40.1c-.43,0-.82-.29-.93-.73-.12-.51.19-1.03.71-1.15,1.3-.31,2.62-.6,3.94-.86.52-.1,1.02.24,1.12.76s-.24,1.02-.76,1.12c-1.29.25-2.59.53-3.86.84-.08.02-.15.03-.22.03ZM117.08,39.07c-.06,0-.11,0-.17-.02-1.29-.23-2.6-.44-3.91-.62-.52-.07-.89-.55-.82-1.08.07-.52.56-.89,1.08-.82,1.33.18,2.68.4,3.99.64.52.09.86.59.77,1.11-.08.46-.49.78-.94.78ZM86.7,38.46c-.47,0-.88-.35-.95-.82-.07-.52.29-1.01.81-1.08,1.32-.18,2.67-.34,4.01-.47.53-.05.99.33,1.04.86.05.53-.33.99-.86,1.04-1.31.13-2.63.28-3.93.46-.04,0-.09,0-.13,0ZM108.32,37.9s-.06,0-.08,0c-1.31-.11-2.63-.2-3.95-.26-.53-.02-.94-.47-.91-1s.47-.94,1-.91c1.34.06,2.7.15,4.03.26.53.05.92.51.87,1.03-.04.5-.46.87-.95.87ZM95.49,37.65c-.51,0-.93-.4-.95-.91-.02-.53.38-.97.91-1,1.33-.06,2.69-.1,4.03-.1h0c.53,0,.95.42.96.95,0,.53-.42.96-.95.96-1.32,0-2.65.04-3.95.1-.02,0-.03,0-.04,0Z"/><path class="cls-4" d="M163.79,89.44c0,39.25-28.56,45.92-63.79,45.92s-63.79-6.67-63.79-45.92c0-25.36,28.56-45.92,63.79-45.92s63.79,20.56,63.79,45.92Z"/><path class="cls-6" d="M100,136.78c-21.45,0-35.57-2.6-45.81-8.43-13.05-7.43-19.4-20.16-19.4-38.91,0-26.1,29.25-47.34,65.21-47.34s65.2,21.24,65.2,47.34c0,18.75-6.35,31.48-19.4,38.91-10.23,5.83-24.36,8.43-45.81,8.43ZM100,44.94c-34.39,0-62.37,19.96-62.37,44.5,0,17.64,5.88,29.56,17.97,36.45,9.78,5.57,23.48,8.06,44.4,8.06s34.62-2.48,44.4-8.06c12.09-6.89,17.97-18.81,17.97-36.45,0-24.54-27.98-44.5-62.37-44.5Z"/><path class="cls-4" d="M79.24,97.91c0,5.53-4.49,10.03-10.04,10.03s-10.04-4.5-10.04-10.03,4.49-10.04,10.04-10.04,10.04,4.49,10.04,10.04Z"/><path class="cls-6" d="M69.21,108.73c-5.96,0-10.81-4.85-10.81-10.81s4.85-10.82,10.81-10.82,10.82,4.85,10.82,10.82-4.85,10.81-10.82,10.81ZM69.21,88.66c-5.1,0-9.26,4.15-9.26,9.26s4.15,9.25,9.26,9.25,9.26-4.15,9.26-9.25-4.15-9.26-9.26-9.26Z"/><path class="cls-6" d="M74.39,97.91c0,2.86-2.32,5.19-5.19,5.19s-5.19-2.33-5.19-5.19,2.32-5.19,5.19-5.19,5.19,2.32,5.19,5.19Z"/><path class="cls-4" d="M140.81,97.91c0,5.53-4.49,10.03-10.04,10.03s-10.04-4.5-10.04-10.03,4.49-10.04,10.04-10.04,10.04,4.49,10.04,10.04Z"/><path class="cls-6" d="M130.77,108.73c-5.96,0-10.81-4.85-10.81-10.81s4.85-10.82,10.81-10.82,10.82,4.85,10.82,10.82-4.85,10.81-10.82,10.81ZM130.77,88.66c-5.1,0-9.26,4.15-9.26,9.26s4.15,9.25,9.26,9.25,9.26-4.15,9.26-9.25-4.15-9.26-9.26-9.26Z"/><path class="cls-6" d="M135.96,97.91c0,2.86-2.32,5.19-5.19,5.19s-5.19-2.33-5.19-5.19,2.32-5.19,5.19-5.19,5.19,2.32,5.19,5.19Z"/><ellipse class="cls-2" cx="100" cy="111.73" rx="15.6" ry="12.05"/><path class="cls-6" d="M96.73,112.12c-1.33,0-2.57-.53-3.34-1.42-.26-.3-.22-.74.08-1,.3-.25.74-.22,1,.08.5.58,1.34.93,2.26.93,1.47,0,2.67-.88,2.67-1.96,0-.39.32-.71.71-.71s.71.32.71.71c0,1.86-1.83,3.38-4.09,3.38Z"/><path class="cls-6" d="M103.77,112.12c-2.25,0-4.09-1.51-4.09-3.38,0-.39.32-.71.71-.71s.71.32.71.71c0,1.08,1.2,1.96,2.67,1.96.92,0,1.76-.35,2.26-.93.26-.3.7-.33,1-.08.3.26.33.7.08,1-.76.89-2.01,1.42-3.34,1.42Z"/><path class="cls-6" d="M104.52,105.45c0,1.26-2,3.11-4.47,3.11s-4.47-1.85-4.47-3.11,2-2.29,4.47-2.29,4.47,1.02,4.47,2.29Z"/><path class="cls-1" d="M55.9,103.23c0,2.83-2.29,5.12-5.12,5.12s-5.12-2.29-5.12-5.12,2.29-5.12,5.12-5.12,5.12,2.29,5.12,5.12Z"/><path class="cls-1" d="M144.1,103.23c0,2.83,2.29,5.12,5.12,5.12s5.12-2.29,5.12-5.12-2.29-5.12-5.12-5.12-5.12,2.29-5.12,5.12Z"/><path class="cls-4" d="M49.35,31.13c0-1.66-1.82-3-3.68-4.39-7.43-5.54-17.95-4-23.48,3.43-5.54,7.43-4,17.95,3.43,23.48,2.46,1.83,4.71,2.49,6.83,2.28,0,0,16.94-6.77,16.9-24.8Z"/><path class="cls-6" d="M31.7,57.62c-2.34,0-4.71-.89-7.07-2.64-3.95-2.94-6.52-7.25-7.23-12.12-.71-4.87.52-9.73,3.46-13.68,2.94-3.95,7.25-6.52,12.12-7.23,4.87-.71,9.73.52,13.68,3.46l.06.04c2.11,1.57,4.28,3.19,4.29,5.67h0c.04,18.94-17.76,26.27-17.94,26.34-.14.06-.3.09-.45.11-.3.03-.61.05-.91.05ZM35.68,25.07c-.74,0-1.48.05-2.22.16-4,.58-7.53,2.69-9.94,5.93-2.41,3.24-3.42,7.23-2.84,11.22.58,4,2.69,7.53,5.93,9.94,1.92,1.43,3.71,2.08,5.44,1.97,1.98-.86,15.68-7.39,15.64-23.17h0c0-.82-1.64-2.04-2.96-3.02l-.06-.04c-2.64-1.97-5.77-3-9.01-3Z"/><path class="cls-6" d="M26.96,39.94c-.42,0-.85-.16-1.17-.48-.65-.65-.65-1.69,0-2.34,9.57-9.57,17.86-1.5,17.94-1.42.65.65.65,1.69,0,2.34-.64.64-1.69.65-2.33,0-.62-.6-6.2-5.66-13.26,1.41-.32.32-.75.48-1.17.48Z"/><path class="cls-4" d="M150.65,31.13c0-1.66,1.82-3,3.68-4.39,7.43-5.54,17.95-4,23.48,3.43,5.54,7.43,4,17.95-3.43,23.48-2.46,1.83-4.71,2.49-6.83,2.28,0,0-16.94-6.77-16.9-24.8Z"/><path class="cls-6" d="M168.3,57.62c-.31,0-.61-.02-.91-.05-.15-.02-.31-.05-.45-.11-.18-.07-17.98-7.41-17.94-26.34h0c0-2.48,2.19-4.1,4.29-5.67l.05-.04c8.15-6.07,19.72-4.38,25.8,3.77,2.94,3.95,4.17,8.81,3.46,13.68-.71,4.87-3.28,9.18-7.23,12.12-2.36,1.76-4.73,2.64-7.07,2.64ZM167.95,54.3c1.74.11,3.52-.54,5.44-1.97,3.24-2.41,5.35-5.95,5.93-9.94.58-4-.42-7.98-2.84-11.22-4.98-6.69-14.48-8.08-21.17-3.09l-.05.04c-1.32.98-2.96,2.2-2.96,3.02-.03,15.78,13.65,22.31,15.64,23.17Z"/><path class="cls-6" d="M173.04,39.94c-.42,0-.85-.16-1.17-.48-7.07-7.07-12.65-2.01-13.27-1.41-.65.64-1.7.63-2.34-.02-.64-.65-.64-1.69,0-2.33.08-.08,8.37-8.15,17.94,1.42.65.65.65,1.69,0,2.34-.32.32-.75.48-1.17.48Z"/><path class="cls-6" d="M100,34.38c-.52,0-.95-.42-.95-.95v-4.25c0-.52.42-.95.95-.95s.95.42.95.95v4.25c0,.52-.42.95-.95.95ZM100,24.45c-.52,0-.95-.42-.95-.95v-4.25c0-.52.42-.95.95-.95s.95.42.95.95v4.25c0,.52-.42.95-.95.95ZM100,14.53c-.52,0-.95-.42-.95-.95v-4.25c0-.52.42-.95.95-.95s.95.42.95.95v4.25c0,.52-.42.95-.95.95Z"/></svg>